M48
;DRILL file {Pcbnew (2013-jul-07)-stable} date Friday 21 August 2015 08:50:33 AM IST
;FORMAT={-:-/ absolute / inch / decimal}
FMAT,2
INCH,TZ
T1C0.031
T2C0.032
T3C0.040
%
G90
G05
M72
T1
X9.55Y-7.55
T2
X8.7Y-7.2
X8.8Y-7.2
X8.9Y-7.45
X8.9Y-7.7
X9.Y-7.15
X9.Y-7.25
X9.Y-7.45
X9.Y-7.7
X9.1Y-7.15
X9.225Y-7.525
X9.225Y-7.625
X9.35Y-7.2
X9.35Y-7.45
X9.4Y-7.7
X9.45Y-7.1
X9.45Y-7.2
X9.45Y-7.45
X9.5Y-7.7
X9.65Y-7.475
X9.725Y-7.7
X9.725Y-7.8
X9.75Y-7.475
X9.85Y-7.2
X9.9Y-7.7
X9.95Y-7.1
X9.95Y-7.2
X10.Y-7.7
T3
X8.85Y-8.1
X8.85Y-8.6
X9.05Y-8.1
X9.05Y-8.6
X9.4Y-8.1
X9.4Y-8.6
X9.6Y-8.1
X9.6Y-8.6
X9.9Y-8.1
X9.9Y-8.6
X10.1Y-8.1
X10.1Y-8.6
T1
X9.5608Y-8.35G85X9.5392Y-8.35
G05
T0
M30
