G04 (created by PCBNEW (2013-jul-07)-stable) date Friday 21 August 2015 09:51:10 AM IST*
%MOIN*%
G04 Gerber Fmt 3.4, Leading zero omitted, Abs format*
%FSLAX34Y34*%
G01*
G70*
G90*
G04 APERTURE LIST*
%ADD10C,0.00590551*%
%ADD11C,0.00393701*%
G04 APERTURE END LIST*
G54D10*
G54D11*
X102159Y-70687D02*
X101765Y-70687D01*
X102159Y-70912D02*
X101934Y-70744D01*
X101765Y-70912D02*
X101990Y-70687D01*
X102159Y-71250D02*
X101953Y-71250D01*
X101915Y-71231D01*
X101896Y-71194D01*
X101896Y-71119D01*
X101915Y-71081D01*
X102140Y-71250D02*
X102159Y-71212D01*
X102159Y-71119D01*
X102140Y-71081D01*
X102103Y-71062D01*
X102065Y-71062D01*
X102028Y-71081D01*
X102009Y-71119D01*
X102009Y-71212D01*
X101990Y-71250D01*
X102159Y-71437D02*
X101896Y-71437D01*
X101971Y-71437D02*
X101934Y-71456D01*
X101915Y-71475D01*
X101896Y-71512D01*
X101896Y-71550D01*
X102159Y-71681D02*
X101896Y-71681D01*
X101934Y-71681D02*
X101915Y-71700D01*
X101896Y-71737D01*
X101896Y-71793D01*
X101915Y-71831D01*
X101953Y-71850D01*
X102159Y-71850D01*
X101953Y-71850D02*
X101915Y-71868D01*
X101896Y-71906D01*
X101896Y-71962D01*
X101915Y-72000D01*
X101953Y-72018D01*
X102159Y-72018D01*
X102159Y-72375D02*
X101953Y-72375D01*
X101915Y-72356D01*
X101896Y-72318D01*
X101896Y-72243D01*
X101915Y-72206D01*
X102140Y-72375D02*
X102159Y-72337D01*
X102159Y-72243D01*
X102140Y-72206D01*
X102103Y-72187D01*
X102065Y-72187D01*
X102028Y-72206D01*
X102009Y-72243D01*
X102009Y-72337D01*
X101990Y-72375D01*
X101896Y-72562D02*
X102159Y-72562D01*
X101934Y-72562D02*
X101915Y-72581D01*
X101896Y-72618D01*
X101896Y-72675D01*
X101915Y-72712D01*
X101953Y-72731D01*
X102159Y-72731D01*
X101896Y-72881D02*
X102159Y-72975D01*
X101896Y-73068D02*
X102159Y-72975D01*
X102253Y-72937D01*
X102271Y-72918D01*
X102290Y-72881D01*
X102159Y-73387D02*
X101953Y-73387D01*
X101915Y-73368D01*
X101896Y-73331D01*
X101896Y-73256D01*
X101915Y-73218D01*
X102140Y-73387D02*
X102159Y-73350D01*
X102159Y-73256D01*
X102140Y-73218D01*
X102103Y-73200D01*
X102065Y-73200D01*
X102028Y-73218D01*
X102009Y-73256D01*
X102009Y-73350D01*
X101990Y-73387D01*
X102046Y-73856D02*
X102046Y-74043D01*
X102159Y-73818D02*
X101765Y-73949D01*
X102159Y-74081D01*
X101896Y-74381D02*
X102215Y-74381D01*
X102253Y-74362D01*
X102271Y-74343D01*
X102290Y-74306D01*
X102290Y-74249D01*
X102271Y-74212D01*
X102140Y-74381D02*
X102159Y-74343D01*
X102159Y-74268D01*
X102140Y-74231D01*
X102121Y-74212D01*
X102084Y-74193D01*
X101971Y-74193D01*
X101934Y-74212D01*
X101915Y-74231D01*
X101896Y-74268D01*
X101896Y-74343D01*
X101915Y-74381D01*
X101896Y-74737D02*
X102215Y-74737D01*
X102253Y-74718D01*
X102271Y-74699D01*
X102290Y-74662D01*
X102290Y-74606D01*
X102271Y-74568D01*
X102140Y-74737D02*
X102159Y-74699D01*
X102159Y-74624D01*
X102140Y-74587D01*
X102121Y-74568D01*
X102084Y-74549D01*
X101971Y-74549D01*
X101934Y-74568D01*
X101915Y-74587D01*
X101896Y-74624D01*
X101896Y-74699D01*
X101915Y-74737D01*
X102159Y-75093D02*
X101953Y-75093D01*
X101915Y-75074D01*
X101896Y-75037D01*
X101896Y-74962D01*
X101915Y-74924D01*
X102140Y-75093D02*
X102159Y-75056D01*
X102159Y-74962D01*
X102140Y-74924D01*
X102103Y-74906D01*
X102065Y-74906D01*
X102028Y-74924D01*
X102009Y-74962D01*
X102009Y-75056D01*
X101990Y-75093D01*
X102159Y-75281D02*
X101896Y-75281D01*
X101971Y-75281D02*
X101934Y-75299D01*
X101915Y-75318D01*
X101896Y-75356D01*
X101896Y-75393D01*
X101896Y-75487D02*
X102159Y-75562D01*
X101971Y-75637D01*
X102159Y-75712D01*
X101896Y-75787D01*
X102159Y-76105D02*
X101953Y-76105D01*
X101915Y-76087D01*
X101896Y-76049D01*
X101896Y-75974D01*
X101915Y-75937D01*
X102140Y-76105D02*
X102159Y-76068D01*
X102159Y-75974D01*
X102140Y-75937D01*
X102103Y-75918D01*
X102065Y-75918D01*
X102028Y-75937D01*
X102009Y-75974D01*
X102009Y-76068D01*
X101990Y-76105D01*
X102159Y-76349D02*
X102140Y-76312D01*
X102103Y-76293D01*
X101765Y-76293D01*
X102543Y-70453D02*
X102562Y-70509D01*
X102581Y-70528D01*
X102618Y-70547D01*
X102674Y-70547D01*
X102712Y-70528D01*
X102731Y-70509D01*
X102749Y-70472D01*
X102749Y-70322D01*
X102356Y-70322D01*
X102356Y-70453D01*
X102374Y-70491D01*
X102393Y-70509D01*
X102431Y-70528D01*
X102468Y-70528D01*
X102506Y-70509D01*
X102524Y-70491D01*
X102543Y-70453D01*
X102543Y-70322D01*
X102749Y-70715D02*
X102356Y-70715D01*
X102637Y-70847D01*
X102356Y-70978D01*
X102749Y-70978D01*
X102749Y-71353D02*
X102749Y-71165D01*
X102356Y-71165D01*
X102749Y-71784D02*
X102356Y-71784D01*
X102637Y-71915D01*
X102356Y-72047D01*
X102749Y-72047D01*
X102487Y-72403D02*
X102749Y-72403D01*
X102487Y-72234D02*
X102693Y-72234D01*
X102731Y-72253D01*
X102749Y-72290D01*
X102749Y-72347D01*
X102731Y-72384D01*
X102712Y-72403D01*
X102487Y-72590D02*
X102749Y-72590D01*
X102524Y-72590D02*
X102506Y-72609D01*
X102487Y-72646D01*
X102487Y-72703D01*
X102506Y-72740D01*
X102543Y-72759D01*
X102749Y-72759D01*
X102487Y-72946D02*
X102824Y-72946D01*
X102862Y-72928D01*
X102881Y-72890D01*
X102881Y-72871D01*
X102356Y-72946D02*
X102374Y-72928D01*
X102393Y-72946D01*
X102374Y-72965D01*
X102356Y-72946D01*
X102393Y-72946D01*
X102749Y-73303D02*
X102543Y-73303D01*
X102506Y-73284D01*
X102487Y-73246D01*
X102487Y-73171D01*
X102506Y-73134D01*
X102731Y-73303D02*
X102749Y-73265D01*
X102749Y-73171D01*
X102731Y-73134D01*
X102693Y-73115D01*
X102656Y-73115D01*
X102618Y-73134D01*
X102599Y-73171D01*
X102599Y-73265D01*
X102581Y-73303D01*
X102749Y-73546D02*
X102731Y-73509D01*
X102693Y-73490D01*
X102356Y-73490D01*
X102356Y-73996D02*
X102674Y-73996D01*
X102712Y-74015D01*
X102731Y-74034D01*
X102749Y-74071D01*
X102749Y-74146D01*
X102731Y-74184D01*
X102712Y-74203D01*
X102674Y-74221D01*
X102356Y-74221D01*
X102487Y-74409D02*
X102749Y-74409D01*
X102524Y-74409D02*
X102506Y-74428D01*
X102487Y-74465D01*
X102487Y-74521D01*
X102506Y-74559D01*
X102543Y-74577D01*
X102749Y-74577D01*
X102749Y-74765D02*
X102487Y-74765D01*
X102356Y-74765D02*
X102374Y-74746D01*
X102393Y-74765D01*
X102374Y-74784D01*
X102356Y-74765D01*
X102393Y-74765D01*
X102487Y-74915D02*
X102749Y-75009D01*
X102487Y-75102D01*
X102731Y-75402D02*
X102749Y-75365D01*
X102749Y-75290D01*
X102731Y-75252D01*
X102693Y-75234D01*
X102543Y-75234D01*
X102506Y-75252D01*
X102487Y-75290D01*
X102487Y-75365D01*
X102506Y-75402D01*
X102543Y-75421D01*
X102581Y-75421D01*
X102618Y-75234D01*
X102749Y-75590D02*
X102487Y-75590D01*
X102562Y-75590D02*
X102524Y-75609D01*
X102506Y-75627D01*
X102487Y-75665D01*
X102487Y-75702D01*
X102731Y-75815D02*
X102749Y-75852D01*
X102749Y-75927D01*
X102731Y-75965D01*
X102693Y-75984D01*
X102674Y-75984D01*
X102637Y-75965D01*
X102618Y-75927D01*
X102618Y-75871D01*
X102599Y-75834D01*
X102562Y-75815D01*
X102543Y-75815D01*
X102506Y-75834D01*
X102487Y-75871D01*
X102487Y-75927D01*
X102506Y-75965D01*
X102749Y-76152D02*
X102487Y-76152D01*
X102356Y-76152D02*
X102374Y-76134D01*
X102393Y-76152D01*
X102374Y-76171D01*
X102356Y-76152D01*
X102393Y-76152D01*
X102487Y-76284D02*
X102487Y-76434D01*
X102356Y-76340D02*
X102693Y-76340D01*
X102731Y-76359D01*
X102749Y-76396D01*
X102749Y-76434D01*
X102487Y-76527D02*
X102749Y-76621D01*
X102487Y-76715D02*
X102749Y-76621D01*
X102843Y-76583D01*
X102862Y-76565D01*
X102881Y-76527D01*
G54D10*
X94000Y-83500D02*
X94000Y-84500D01*
X94000Y-84500D02*
X97000Y-84500D01*
X97000Y-84500D02*
X97000Y-83000D01*
X97000Y-83000D02*
X94000Y-83000D01*
X94000Y-83000D02*
X94000Y-83500D01*
X102292Y-77000D02*
G75*
G03X102292Y-77000I-6792J0D01*
G74*
G01*
X95453Y-76690D02*
X95471Y-76746D01*
X95490Y-76765D01*
X95528Y-76784D01*
X95584Y-76784D01*
X95621Y-76765D01*
X95640Y-76746D01*
X95659Y-76709D01*
X95659Y-76559D01*
X95265Y-76559D01*
X95265Y-76690D01*
X95284Y-76728D01*
X95303Y-76746D01*
X95340Y-76765D01*
X95378Y-76765D01*
X95415Y-76746D01*
X95434Y-76728D01*
X95453Y-76690D01*
X95453Y-76559D01*
X95265Y-76896D02*
X95265Y-77121D01*
X95659Y-77009D02*
X95265Y-77009D01*
X95659Y-77459D02*
X95659Y-77234D01*
X95659Y-77346D02*
X95265Y-77346D01*
X95321Y-77309D01*
X95359Y-77271D01*
X95378Y-77234D01*
X95265Y-76700D02*
X95265Y-76943D01*
X95415Y-76812D01*
X95415Y-76868D01*
X95434Y-76906D01*
X95453Y-76925D01*
X95490Y-76943D01*
X95584Y-76943D01*
X95621Y-76925D01*
X95640Y-76906D01*
X95659Y-76868D01*
X95659Y-76756D01*
X95640Y-76718D01*
X95621Y-76700D01*
X95265Y-77056D02*
X95659Y-77187D01*
X95265Y-77318D01*
M02*
