G04 (created by PCBNEW (2013-jul-07)-stable) date Friday 21 August 2015 09:51:10 AM IST*
%MOIN*%
G04 Gerber Fmt 3.4, Leading zero omitted, Abs format*
%FSLAX34Y34*%
G01*
G70*
G90*
G04 APERTURE LIST*
%ADD10C,0.00590551*%
%ADD11R,0.055X0.055*%
%ADD12C,0.055*%
%ADD13C,0.066*%
%ADD14R,0.07X0.07*%
%ADD15C,0.07*%
%ADD16C,0.0590551*%
%ADD17C,0.01*%
G04 APERTURE END LIST*
G54D10*
G54D11*
X98500Y-72000D03*
G54D12*
X99500Y-72000D03*
X99500Y-71000D03*
G54D11*
X93500Y-72000D03*
G54D12*
X94500Y-72000D03*
X94500Y-71000D03*
G54D11*
X91000Y-71500D03*
G54D12*
X90000Y-71500D03*
X90000Y-72500D03*
X90000Y-74500D03*
X89000Y-74500D03*
X97250Y-77000D03*
X97250Y-78000D03*
X96500Y-74750D03*
X97500Y-74750D03*
X93500Y-74500D03*
X94500Y-74500D03*
X92250Y-75250D03*
X92250Y-76250D03*
X88000Y-72000D03*
X87000Y-72000D03*
G54D13*
X94000Y-77000D03*
X95000Y-77000D03*
X99000Y-77000D03*
X100000Y-77000D03*
X89000Y-77000D03*
X90000Y-77000D03*
G54D14*
X94000Y-86000D03*
G54D15*
X96000Y-86000D03*
G54D14*
X94000Y-81000D03*
G54D15*
X96000Y-81000D03*
G54D14*
X88500Y-81000D03*
G54D15*
X90500Y-81000D03*
G54D14*
X99000Y-86000D03*
G54D15*
X101000Y-86000D03*
G54D14*
X99000Y-81000D03*
G54D15*
X101000Y-81000D03*
G54D14*
X88500Y-86000D03*
G54D15*
X90500Y-86000D03*
G54D16*
X95500Y-75500D03*
X95500Y-83500D03*
G54D17*
X96500Y-74750D02*
X96500Y-76250D01*
X96500Y-76250D02*
X97250Y-77000D01*
X95500Y-83500D02*
X96000Y-83500D01*
X98000Y-77750D02*
X97250Y-77000D01*
X98000Y-81500D02*
X98000Y-77750D01*
X96000Y-83500D02*
X98000Y-81500D01*
X88000Y-72000D02*
X88000Y-72500D01*
X88000Y-72500D02*
X90000Y-74500D01*
X90000Y-74500D02*
X91500Y-74500D01*
X91500Y-74500D02*
X92250Y-75250D01*
X92250Y-75250D02*
X92750Y-75250D01*
X92750Y-75250D02*
X93500Y-74500D01*
X91000Y-71500D02*
X93000Y-71500D01*
X93000Y-71500D02*
X93500Y-72000D01*
X99500Y-72000D02*
X99500Y-74500D01*
X99000Y-78750D02*
X99000Y-81000D01*
X98500Y-78250D02*
X99000Y-78750D01*
X98500Y-75500D02*
X98500Y-78250D01*
X99500Y-74500D02*
X98500Y-75500D01*
X99000Y-86000D02*
X99000Y-81000D01*
X92250Y-76250D02*
X93250Y-76250D01*
X93250Y-76250D02*
X94000Y-77000D01*
X100000Y-77000D02*
X100500Y-77000D01*
X101000Y-72500D02*
X99500Y-71000D01*
X101000Y-76500D02*
X101000Y-72500D01*
X100500Y-77000D02*
X101000Y-76500D01*
X87000Y-72000D02*
X87000Y-71250D01*
X89250Y-70750D02*
X90000Y-71500D01*
X87500Y-70750D02*
X89250Y-70750D01*
X87000Y-71250D02*
X87500Y-70750D01*
X88500Y-81000D02*
X88500Y-86000D01*
X87000Y-72000D02*
X87000Y-79500D01*
X87000Y-79500D02*
X88500Y-81000D01*
X89000Y-77000D02*
X89000Y-74500D01*
X94500Y-72000D02*
X94500Y-74500D01*
X94000Y-86000D02*
X94000Y-81000D01*
M02*
