G04 (created by PCBNEW (2013-jul-07)-stable) date Friday 21 August 2015 09:51:10 AM IST*
%MOIN*%
G04 Gerber Fmt 3.4, Leading zero omitted, Abs format*
%FSLAX34Y34*%
G01*
G70*
G90*
G04 APERTURE LIST*
%ADD10C,0.00590551*%
%ADD11C,0.012*%
%ADD12C,0.015*%
%ADD13C,0.008*%
%ADD14C,0.003*%
%ADD15C,0.01*%
%ADD16C,0.006*%
%ADD17C,0.0035*%
G04 APERTURE END LIST*
G54D10*
G54D11*
X99500Y-70500D02*
X98000Y-72000D01*
X98000Y-72000D02*
X98000Y-72500D01*
X98000Y-72500D02*
X98500Y-73000D01*
X98500Y-73000D02*
X99500Y-73000D01*
X99500Y-73000D02*
X100500Y-72000D01*
X100500Y-72000D02*
X100500Y-71000D01*
X100500Y-71000D02*
X100000Y-70500D01*
X100000Y-70500D02*
X99500Y-70500D01*
X94500Y-70500D02*
X93000Y-72000D01*
X93000Y-72000D02*
X93000Y-72500D01*
X93000Y-72500D02*
X93500Y-73000D01*
X93500Y-73000D02*
X94500Y-73000D01*
X94500Y-73000D02*
X95500Y-72000D01*
X95500Y-72000D02*
X95500Y-71000D01*
X95500Y-71000D02*
X95000Y-70500D01*
X95000Y-70500D02*
X94500Y-70500D01*
X90000Y-73000D02*
X91500Y-71500D01*
X91500Y-71500D02*
X91500Y-71000D01*
X91500Y-71000D02*
X91000Y-70500D01*
X91000Y-70500D02*
X90000Y-70500D01*
X90000Y-70500D02*
X89000Y-71500D01*
X89000Y-71500D02*
X89000Y-72500D01*
X89000Y-72500D02*
X89500Y-73000D01*
X89500Y-73000D02*
X90000Y-73000D01*
G54D12*
X90000Y-74500D02*
X89000Y-74500D01*
X90559Y-74500D02*
G75*
G03X90559Y-74500I-559J0D01*
G74*
G01*
X97250Y-77000D02*
X97250Y-78000D01*
X97809Y-77000D02*
G75*
G03X97809Y-77000I-559J0D01*
G74*
G01*
X96500Y-74750D02*
X97500Y-74750D01*
X97059Y-74750D02*
G75*
G03X97059Y-74750I-559J0D01*
G74*
G01*
X93500Y-74500D02*
X94500Y-74500D01*
X94059Y-74500D02*
G75*
G03X94059Y-74500I-559J0D01*
G74*
G01*
X92250Y-75250D02*
X92250Y-76250D01*
X92809Y-75250D02*
G75*
G03X92809Y-75250I-559J0D01*
G74*
G01*
X88000Y-72000D02*
X87000Y-72000D01*
X88559Y-72000D02*
G75*
G03X88559Y-72000I-559J0D01*
G74*
G01*
G54D13*
X95620Y-77750D02*
X95620Y-76250D01*
G54D14*
X95307Y-77000D02*
G75*
G03X95307Y-77000I-707J0D01*
G74*
G01*
G54D15*
X95599Y-76249D02*
G75*
G03X95599Y-77750I-999J-750D01*
G74*
G01*
G54D16*
X94600Y-76550D02*
G75*
G03X94150Y-77000I0J-450D01*
G74*
G01*
X94600Y-77450D02*
G75*
G03X95050Y-77000I0J450D01*
G74*
G01*
X94600Y-76350D02*
G75*
G03X93950Y-77000I0J-650D01*
G74*
G01*
X94600Y-77650D02*
G75*
G03X95250Y-77000I0J650D01*
G74*
G01*
X94600Y-76150D02*
G75*
G03X93750Y-77000I0J-850D01*
G74*
G01*
X94600Y-77850D02*
G75*
G03X95450Y-77000I0J850D01*
G74*
G01*
G54D13*
X100620Y-77750D02*
X100620Y-76250D01*
G54D14*
X100307Y-77000D02*
G75*
G03X100307Y-77000I-707J0D01*
G74*
G01*
G54D15*
X100599Y-76249D02*
G75*
G03X100599Y-77750I-999J-750D01*
G74*
G01*
G54D16*
X99600Y-76550D02*
G75*
G03X99150Y-77000I0J-450D01*
G74*
G01*
X99600Y-77450D02*
G75*
G03X100050Y-77000I0J450D01*
G74*
G01*
X99600Y-76350D02*
G75*
G03X98950Y-77000I0J-650D01*
G74*
G01*
X99600Y-77650D02*
G75*
G03X100250Y-77000I0J650D01*
G74*
G01*
X99600Y-76150D02*
G75*
G03X98750Y-77000I0J-850D01*
G74*
G01*
X99600Y-77850D02*
G75*
G03X100450Y-77000I0J850D01*
G74*
G01*
G54D13*
X90620Y-77750D02*
X90620Y-76250D01*
G54D14*
X90307Y-77000D02*
G75*
G03X90307Y-77000I-707J0D01*
G74*
G01*
G54D15*
X90599Y-76249D02*
G75*
G03X90599Y-77750I-999J-750D01*
G74*
G01*
G54D16*
X89600Y-76550D02*
G75*
G03X89150Y-77000I0J-450D01*
G74*
G01*
X89600Y-77450D02*
G75*
G03X90050Y-77000I0J450D01*
G74*
G01*
X89600Y-76350D02*
G75*
G03X88950Y-77000I0J-650D01*
G74*
G01*
X89600Y-77650D02*
G75*
G03X90250Y-77000I0J650D01*
G74*
G01*
X89600Y-76150D02*
G75*
G03X88750Y-77000I0J-850D01*
G74*
G01*
X89600Y-77850D02*
G75*
G03X90450Y-77000I0J850D01*
G74*
G01*
G54D11*
X96750Y-86000D02*
G75*
G03X96750Y-86000I-1750J0D01*
G74*
G01*
X96750Y-81000D02*
G75*
G03X96750Y-81000I-1750J0D01*
G74*
G01*
X91250Y-81000D02*
G75*
G03X91250Y-81000I-1750J0D01*
G74*
G01*
X101750Y-86000D02*
G75*
G03X101750Y-86000I-1750J0D01*
G74*
G01*
X101750Y-81000D02*
G75*
G03X101750Y-81000I-1750J0D01*
G74*
G01*
X91250Y-86000D02*
G75*
G03X91250Y-86000I-1750J0D01*
G74*
G01*
G54D13*
X95961Y-71700D02*
X95923Y-71680D01*
X95885Y-71642D01*
X95828Y-71585D01*
X95790Y-71566D01*
X95752Y-71566D01*
X95771Y-71661D02*
X95733Y-71642D01*
X95695Y-71604D01*
X95676Y-71528D01*
X95676Y-71395D01*
X95695Y-71319D01*
X95733Y-71280D01*
X95771Y-71261D01*
X95847Y-71261D01*
X95885Y-71280D01*
X95923Y-71319D01*
X95942Y-71395D01*
X95942Y-71528D01*
X95923Y-71604D01*
X95885Y-71642D01*
X95847Y-71661D01*
X95771Y-71661D01*
X96323Y-71661D02*
X96095Y-71661D01*
X96209Y-71661D02*
X96209Y-71261D01*
X96171Y-71319D01*
X96133Y-71357D01*
X96095Y-71376D01*
X97952Y-72911D02*
X97952Y-72511D01*
X98104Y-72511D01*
X98142Y-72530D01*
X98161Y-72550D01*
X98180Y-72588D01*
X98180Y-72645D01*
X98161Y-72683D01*
X98142Y-72702D01*
X98104Y-72721D01*
X97952Y-72721D01*
X98352Y-72911D02*
X98352Y-72511D01*
X98580Y-72911D01*
X98580Y-72511D01*
X98752Y-72550D02*
X98771Y-72530D01*
X98809Y-72511D01*
X98904Y-72511D01*
X98942Y-72530D01*
X98961Y-72550D01*
X98980Y-72588D01*
X98980Y-72626D01*
X98961Y-72683D01*
X98733Y-72911D01*
X98980Y-72911D01*
X99133Y-72550D02*
X99152Y-72530D01*
X99190Y-72511D01*
X99285Y-72511D01*
X99323Y-72530D01*
X99342Y-72550D01*
X99361Y-72588D01*
X99361Y-72626D01*
X99342Y-72683D01*
X99114Y-72911D01*
X99361Y-72911D01*
X99514Y-72550D02*
X99533Y-72530D01*
X99571Y-72511D01*
X99666Y-72511D01*
X99704Y-72530D01*
X99723Y-72550D01*
X99742Y-72588D01*
X99742Y-72626D01*
X99723Y-72683D01*
X99495Y-72911D01*
X99742Y-72911D01*
X99895Y-72550D02*
X99914Y-72530D01*
X99952Y-72511D01*
X100047Y-72511D01*
X100085Y-72530D01*
X100104Y-72550D01*
X100123Y-72588D01*
X100123Y-72626D01*
X100104Y-72683D01*
X99876Y-72911D01*
X100123Y-72911D01*
X100276Y-72797D02*
X100466Y-72797D01*
X100238Y-72911D02*
X100371Y-72511D01*
X100504Y-72911D01*
X90961Y-71700D02*
X90923Y-71680D01*
X90885Y-71642D01*
X90828Y-71585D01*
X90790Y-71566D01*
X90752Y-71566D01*
X90771Y-71661D02*
X90733Y-71642D01*
X90695Y-71604D01*
X90676Y-71528D01*
X90676Y-71395D01*
X90695Y-71319D01*
X90733Y-71280D01*
X90771Y-71261D01*
X90847Y-71261D01*
X90885Y-71280D01*
X90923Y-71319D01*
X90942Y-71395D01*
X90942Y-71528D01*
X90923Y-71604D01*
X90885Y-71642D01*
X90847Y-71661D01*
X90771Y-71661D01*
X91095Y-71300D02*
X91114Y-71280D01*
X91152Y-71261D01*
X91247Y-71261D01*
X91285Y-71280D01*
X91304Y-71300D01*
X91323Y-71338D01*
X91323Y-71376D01*
X91304Y-71433D01*
X91076Y-71661D01*
X91323Y-71661D01*
X92952Y-72911D02*
X92952Y-72511D01*
X93104Y-72511D01*
X93142Y-72530D01*
X93161Y-72550D01*
X93180Y-72588D01*
X93180Y-72645D01*
X93161Y-72683D01*
X93142Y-72702D01*
X93104Y-72721D01*
X92952Y-72721D01*
X93352Y-72911D02*
X93352Y-72511D01*
X93580Y-72911D01*
X93580Y-72511D01*
X93752Y-72550D02*
X93771Y-72530D01*
X93809Y-72511D01*
X93904Y-72511D01*
X93942Y-72530D01*
X93961Y-72550D01*
X93980Y-72588D01*
X93980Y-72626D01*
X93961Y-72683D01*
X93733Y-72911D01*
X93980Y-72911D01*
X94133Y-72550D02*
X94152Y-72530D01*
X94190Y-72511D01*
X94285Y-72511D01*
X94323Y-72530D01*
X94342Y-72550D01*
X94361Y-72588D01*
X94361Y-72626D01*
X94342Y-72683D01*
X94114Y-72911D01*
X94361Y-72911D01*
X94514Y-72550D02*
X94533Y-72530D01*
X94571Y-72511D01*
X94666Y-72511D01*
X94704Y-72530D01*
X94723Y-72550D01*
X94742Y-72588D01*
X94742Y-72626D01*
X94723Y-72683D01*
X94495Y-72911D01*
X94742Y-72911D01*
X94895Y-72550D02*
X94914Y-72530D01*
X94952Y-72511D01*
X95047Y-72511D01*
X95085Y-72530D01*
X95104Y-72550D01*
X95123Y-72588D01*
X95123Y-72626D01*
X95104Y-72683D01*
X94876Y-72911D01*
X95123Y-72911D01*
X95276Y-72797D02*
X95466Y-72797D01*
X95238Y-72911D02*
X95371Y-72511D01*
X95504Y-72911D01*
X93461Y-72200D02*
X93423Y-72180D01*
X93385Y-72142D01*
X93328Y-72085D01*
X93290Y-72066D01*
X93252Y-72066D01*
X93271Y-72161D02*
X93233Y-72142D01*
X93195Y-72104D01*
X93176Y-72028D01*
X93176Y-71895D01*
X93195Y-71819D01*
X93233Y-71780D01*
X93271Y-71761D01*
X93347Y-71761D01*
X93385Y-71780D01*
X93423Y-71819D01*
X93442Y-71895D01*
X93442Y-72028D01*
X93423Y-72104D01*
X93385Y-72142D01*
X93347Y-72161D01*
X93271Y-72161D01*
X93576Y-71761D02*
X93823Y-71761D01*
X93690Y-71914D01*
X93747Y-71914D01*
X93785Y-71933D01*
X93804Y-71952D01*
X93823Y-71990D01*
X93823Y-72085D01*
X93804Y-72123D01*
X93785Y-72142D01*
X93747Y-72161D01*
X93633Y-72161D01*
X93595Y-72142D01*
X93576Y-72123D01*
X89052Y-70911D02*
X89052Y-70511D01*
X89204Y-70511D01*
X89242Y-70530D01*
X89261Y-70550D01*
X89280Y-70588D01*
X89280Y-70645D01*
X89261Y-70683D01*
X89242Y-70702D01*
X89204Y-70721D01*
X89052Y-70721D01*
X89452Y-70911D02*
X89452Y-70511D01*
X89680Y-70911D01*
X89680Y-70511D01*
X89852Y-70550D02*
X89871Y-70530D01*
X89909Y-70511D01*
X90004Y-70511D01*
X90042Y-70530D01*
X90061Y-70550D01*
X90080Y-70588D01*
X90080Y-70626D01*
X90061Y-70683D01*
X89833Y-70911D01*
X90080Y-70911D01*
X90233Y-70550D02*
X90252Y-70530D01*
X90290Y-70511D01*
X90385Y-70511D01*
X90423Y-70530D01*
X90442Y-70550D01*
X90461Y-70588D01*
X90461Y-70626D01*
X90442Y-70683D01*
X90214Y-70911D01*
X90461Y-70911D01*
X90614Y-70550D02*
X90633Y-70530D01*
X90671Y-70511D01*
X90766Y-70511D01*
X90804Y-70530D01*
X90823Y-70550D01*
X90842Y-70588D01*
X90842Y-70626D01*
X90823Y-70683D01*
X90595Y-70911D01*
X90842Y-70911D01*
X90995Y-70550D02*
X91014Y-70530D01*
X91052Y-70511D01*
X91147Y-70511D01*
X91185Y-70530D01*
X91204Y-70550D01*
X91223Y-70588D01*
X91223Y-70626D01*
X91204Y-70683D01*
X90976Y-70911D01*
X91223Y-70911D01*
X91376Y-70797D02*
X91566Y-70797D01*
X91338Y-70911D02*
X91471Y-70511D01*
X91604Y-70911D01*
X89816Y-73722D02*
X89650Y-73460D01*
X89530Y-73722D02*
X89530Y-73172D01*
X89721Y-73172D01*
X89769Y-73198D01*
X89792Y-73225D01*
X89816Y-73277D01*
X89816Y-73355D01*
X89792Y-73408D01*
X89769Y-73434D01*
X89721Y-73460D01*
X89530Y-73460D01*
X90269Y-73172D02*
X90030Y-73172D01*
X90007Y-73434D01*
X90030Y-73408D01*
X90078Y-73382D01*
X90197Y-73382D01*
X90245Y-73408D01*
X90269Y-73434D01*
X90292Y-73486D01*
X90292Y-73617D01*
X90269Y-73670D01*
X90245Y-73696D01*
X90197Y-73722D01*
X90078Y-73722D01*
X90030Y-73696D01*
X90007Y-73670D01*
X96472Y-77183D02*
X96210Y-77350D01*
X96472Y-77469D02*
X95922Y-77469D01*
X95922Y-77278D01*
X95948Y-77230D01*
X95975Y-77207D01*
X96027Y-77183D01*
X96105Y-77183D01*
X96158Y-77207D01*
X96184Y-77230D01*
X96210Y-77278D01*
X96210Y-77469D01*
X95975Y-76992D02*
X95948Y-76969D01*
X95922Y-76921D01*
X95922Y-76802D01*
X95948Y-76754D01*
X95975Y-76730D01*
X96027Y-76707D01*
X96079Y-76707D01*
X96158Y-76730D01*
X96472Y-77016D01*
X96472Y-76707D01*
X96516Y-75972D02*
X96350Y-75710D01*
X96230Y-75972D02*
X96230Y-75422D01*
X96421Y-75422D01*
X96469Y-75448D01*
X96492Y-75475D01*
X96516Y-75527D01*
X96516Y-75605D01*
X96492Y-75658D01*
X96469Y-75684D01*
X96421Y-75710D01*
X96230Y-75710D01*
X96992Y-75972D02*
X96707Y-75972D01*
X96850Y-75972D02*
X96850Y-75422D01*
X96802Y-75501D01*
X96754Y-75553D01*
X96707Y-75579D01*
X93516Y-75722D02*
X93350Y-75460D01*
X93230Y-75722D02*
X93230Y-75172D01*
X93421Y-75172D01*
X93469Y-75198D01*
X93492Y-75225D01*
X93516Y-75277D01*
X93516Y-75355D01*
X93492Y-75408D01*
X93469Y-75434D01*
X93421Y-75460D01*
X93230Y-75460D01*
X93945Y-75355D02*
X93945Y-75722D01*
X93826Y-75146D02*
X93707Y-75539D01*
X94016Y-75539D01*
X91472Y-75433D02*
X91210Y-75600D01*
X91472Y-75719D02*
X90922Y-75719D01*
X90922Y-75528D01*
X90948Y-75480D01*
X90975Y-75457D01*
X91027Y-75433D01*
X91105Y-75433D01*
X91158Y-75457D01*
X91184Y-75480D01*
X91210Y-75528D01*
X91210Y-75719D01*
X90922Y-75266D02*
X90922Y-74957D01*
X91132Y-75123D01*
X91132Y-75052D01*
X91158Y-75004D01*
X91184Y-74980D01*
X91236Y-74957D01*
X91367Y-74957D01*
X91420Y-74980D01*
X91446Y-75004D01*
X91472Y-75052D01*
X91472Y-75195D01*
X91446Y-75242D01*
X91420Y-75266D01*
X87816Y-71222D02*
X87650Y-70960D01*
X87530Y-71222D02*
X87530Y-70672D01*
X87721Y-70672D01*
X87769Y-70698D01*
X87792Y-70725D01*
X87816Y-70777D01*
X87816Y-70855D01*
X87792Y-70908D01*
X87769Y-70934D01*
X87721Y-70960D01*
X87530Y-70960D01*
X88245Y-70672D02*
X88150Y-70672D01*
X88102Y-70698D01*
X88078Y-70725D01*
X88030Y-70803D01*
X88007Y-70908D01*
X88007Y-71117D01*
X88030Y-71170D01*
X88054Y-71196D01*
X88102Y-71222D01*
X88197Y-71222D01*
X88245Y-71196D01*
X88269Y-71170D01*
X88292Y-71117D01*
X88292Y-70986D01*
X88269Y-70934D01*
X88245Y-70908D01*
X88197Y-70882D01*
X88102Y-70882D01*
X88054Y-70908D01*
X88030Y-70934D01*
X88007Y-70986D01*
G54D17*
X94278Y-75621D02*
X94278Y-75321D01*
X94350Y-75321D01*
X94392Y-75335D01*
X94421Y-75364D01*
X94435Y-75392D01*
X94450Y-75450D01*
X94450Y-75492D01*
X94435Y-75550D01*
X94421Y-75578D01*
X94392Y-75607D01*
X94350Y-75621D01*
X94278Y-75621D01*
X94564Y-75350D02*
X94578Y-75335D01*
X94607Y-75321D01*
X94678Y-75321D01*
X94707Y-75335D01*
X94721Y-75350D01*
X94735Y-75378D01*
X94735Y-75407D01*
X94721Y-75450D01*
X94550Y-75621D01*
X94735Y-75621D01*
X94307Y-78621D02*
X94164Y-78621D01*
X94164Y-78321D01*
X94407Y-78464D02*
X94507Y-78464D01*
X94550Y-78621D02*
X94407Y-78621D01*
X94407Y-78321D01*
X94550Y-78321D01*
X94678Y-78621D02*
X94678Y-78321D01*
X94750Y-78321D01*
X94792Y-78335D01*
X94821Y-78364D01*
X94835Y-78392D01*
X94850Y-78450D01*
X94850Y-78492D01*
X94835Y-78550D01*
X94821Y-78578D01*
X94792Y-78607D01*
X94750Y-78621D01*
X94678Y-78621D01*
X99278Y-75621D02*
X99278Y-75321D01*
X99350Y-75321D01*
X99392Y-75335D01*
X99421Y-75364D01*
X99435Y-75392D01*
X99450Y-75450D01*
X99450Y-75492D01*
X99435Y-75550D01*
X99421Y-75578D01*
X99392Y-75607D01*
X99350Y-75621D01*
X99278Y-75621D01*
X99735Y-75621D02*
X99564Y-75621D01*
X99650Y-75621D02*
X99650Y-75321D01*
X99621Y-75364D01*
X99592Y-75392D01*
X99564Y-75407D01*
X99307Y-78621D02*
X99164Y-78621D01*
X99164Y-78321D01*
X99407Y-78464D02*
X99507Y-78464D01*
X99550Y-78621D02*
X99407Y-78621D01*
X99407Y-78321D01*
X99550Y-78321D01*
X99678Y-78621D02*
X99678Y-78321D01*
X99750Y-78321D01*
X99792Y-78335D01*
X99821Y-78364D01*
X99835Y-78392D01*
X99850Y-78450D01*
X99850Y-78492D01*
X99835Y-78550D01*
X99821Y-78578D01*
X99792Y-78607D01*
X99750Y-78621D01*
X99678Y-78621D01*
X89278Y-75621D02*
X89278Y-75321D01*
X89350Y-75321D01*
X89392Y-75335D01*
X89421Y-75364D01*
X89435Y-75392D01*
X89450Y-75450D01*
X89450Y-75492D01*
X89435Y-75550D01*
X89421Y-75578D01*
X89392Y-75607D01*
X89350Y-75621D01*
X89278Y-75621D01*
X89550Y-75321D02*
X89735Y-75321D01*
X89635Y-75435D01*
X89678Y-75435D01*
X89707Y-75450D01*
X89721Y-75464D01*
X89735Y-75492D01*
X89735Y-75564D01*
X89721Y-75592D01*
X89707Y-75607D01*
X89678Y-75621D01*
X89592Y-75621D01*
X89564Y-75607D01*
X89550Y-75592D01*
X89307Y-78621D02*
X89164Y-78621D01*
X89164Y-78321D01*
X89407Y-78464D02*
X89507Y-78464D01*
X89550Y-78621D02*
X89407Y-78621D01*
X89407Y-78321D01*
X89550Y-78321D01*
X89678Y-78621D02*
X89678Y-78321D01*
X89750Y-78321D01*
X89792Y-78335D01*
X89821Y-78364D01*
X89835Y-78392D01*
X89850Y-78450D01*
X89850Y-78492D01*
X89835Y-78550D01*
X89821Y-78578D01*
X89792Y-78607D01*
X89750Y-78621D01*
X89678Y-78621D01*
G54D13*
X94933Y-87123D02*
X94914Y-87142D01*
X94857Y-87161D01*
X94819Y-87161D01*
X94761Y-87142D01*
X94723Y-87104D01*
X94704Y-87066D01*
X94685Y-86990D01*
X94685Y-86933D01*
X94704Y-86857D01*
X94723Y-86819D01*
X94761Y-86780D01*
X94819Y-86761D01*
X94857Y-86761D01*
X94914Y-86780D01*
X94933Y-86800D01*
X95085Y-86800D02*
X95104Y-86780D01*
X95142Y-86761D01*
X95238Y-86761D01*
X95276Y-86780D01*
X95295Y-86800D01*
X95314Y-86838D01*
X95314Y-86876D01*
X95295Y-86933D01*
X95066Y-87161D01*
X95314Y-87161D01*
X94342Y-84800D02*
X94361Y-84780D01*
X94400Y-84761D01*
X94495Y-84761D01*
X94533Y-84780D01*
X94552Y-84800D01*
X94571Y-84838D01*
X94571Y-84876D01*
X94552Y-84933D01*
X94323Y-85161D01*
X94571Y-85161D01*
X94723Y-84800D02*
X94742Y-84780D01*
X94780Y-84761D01*
X94876Y-84761D01*
X94914Y-84780D01*
X94933Y-84800D01*
X94952Y-84838D01*
X94952Y-84876D01*
X94933Y-84933D01*
X94704Y-85161D01*
X94952Y-85161D01*
X95295Y-84895D02*
X95295Y-85161D01*
X95123Y-84895D02*
X95123Y-85104D01*
X95142Y-85142D01*
X95180Y-85161D01*
X95238Y-85161D01*
X95276Y-85142D01*
X95295Y-85123D01*
X95619Y-84952D02*
X95485Y-84952D01*
X95485Y-85161D02*
X95485Y-84761D01*
X95676Y-84761D01*
X93723Y-82161D02*
X93723Y-81761D01*
X93876Y-81761D01*
X93914Y-81780D01*
X93933Y-81800D01*
X93952Y-81838D01*
X93952Y-81895D01*
X93933Y-81933D01*
X93914Y-81952D01*
X93876Y-81971D01*
X93723Y-81971D01*
X94123Y-82161D02*
X94123Y-81761D01*
X94123Y-81952D02*
X94352Y-81952D01*
X94352Y-82161D02*
X94352Y-81761D01*
X94619Y-81761D02*
X94695Y-81761D01*
X94733Y-81780D01*
X94771Y-81819D01*
X94790Y-81895D01*
X94790Y-82028D01*
X94771Y-82104D01*
X94733Y-82142D01*
X94695Y-82161D01*
X94619Y-82161D01*
X94580Y-82142D01*
X94542Y-82104D01*
X94523Y-82028D01*
X94523Y-81895D01*
X94542Y-81819D01*
X94580Y-81780D01*
X94619Y-81761D01*
X94904Y-81761D02*
X95133Y-81761D01*
X95019Y-82161D02*
X95019Y-81761D01*
X95342Y-81761D02*
X95419Y-81761D01*
X95457Y-81780D01*
X95495Y-81819D01*
X95514Y-81895D01*
X95514Y-82028D01*
X95495Y-82104D01*
X95457Y-82142D01*
X95419Y-82161D01*
X95342Y-82161D01*
X95304Y-82142D01*
X95266Y-82104D01*
X95247Y-82028D01*
X95247Y-81895D01*
X95266Y-81819D01*
X95304Y-81780D01*
X95342Y-81761D01*
X95914Y-82161D02*
X95780Y-81971D01*
X95685Y-82161D02*
X95685Y-81761D01*
X95838Y-81761D01*
X95876Y-81780D01*
X95895Y-81800D01*
X95914Y-81838D01*
X95914Y-81895D01*
X95895Y-81933D01*
X95876Y-81952D01*
X95838Y-81971D01*
X95685Y-81971D01*
X96066Y-81800D02*
X96085Y-81780D01*
X96123Y-81761D01*
X96219Y-81761D01*
X96257Y-81780D01*
X96276Y-81800D01*
X96295Y-81838D01*
X96295Y-81876D01*
X96276Y-81933D01*
X96047Y-82161D01*
X96295Y-82161D01*
X93914Y-80161D02*
X93914Y-79761D01*
X94066Y-79761D01*
X94104Y-79780D01*
X94123Y-79800D01*
X94142Y-79838D01*
X94142Y-79895D01*
X94123Y-79933D01*
X94104Y-79952D01*
X94066Y-79971D01*
X93914Y-79971D01*
X94314Y-80161D02*
X94314Y-79761D01*
X94314Y-79952D02*
X94542Y-79952D01*
X94542Y-80161D02*
X94542Y-79761D01*
X94809Y-79761D02*
X94885Y-79761D01*
X94923Y-79780D01*
X94961Y-79819D01*
X94980Y-79895D01*
X94980Y-80028D01*
X94961Y-80104D01*
X94923Y-80142D01*
X94885Y-80161D01*
X94809Y-80161D01*
X94771Y-80142D01*
X94733Y-80104D01*
X94714Y-80028D01*
X94714Y-79895D01*
X94733Y-79819D01*
X94771Y-79780D01*
X94809Y-79761D01*
X95095Y-79761D02*
X95323Y-79761D01*
X95209Y-80161D02*
X95209Y-79761D01*
X95533Y-79761D02*
X95609Y-79761D01*
X95647Y-79780D01*
X95685Y-79819D01*
X95704Y-79895D01*
X95704Y-80028D01*
X95685Y-80104D01*
X95647Y-80142D01*
X95609Y-80161D01*
X95533Y-80161D01*
X95495Y-80142D01*
X95457Y-80104D01*
X95438Y-80028D01*
X95438Y-79895D01*
X95457Y-79819D01*
X95495Y-79780D01*
X95533Y-79761D01*
X96104Y-80161D02*
X95971Y-79971D01*
X95876Y-80161D02*
X95876Y-79761D01*
X96028Y-79761D01*
X96066Y-79780D01*
X96085Y-79800D01*
X96104Y-79838D01*
X96104Y-79895D01*
X96085Y-79933D01*
X96066Y-79952D01*
X96028Y-79971D01*
X95876Y-79971D01*
X88223Y-82161D02*
X88223Y-81761D01*
X88376Y-81761D01*
X88414Y-81780D01*
X88433Y-81800D01*
X88452Y-81838D01*
X88452Y-81895D01*
X88433Y-81933D01*
X88414Y-81952D01*
X88376Y-81971D01*
X88223Y-81971D01*
X88623Y-82161D02*
X88623Y-81761D01*
X88623Y-81952D02*
X88852Y-81952D01*
X88852Y-82161D02*
X88852Y-81761D01*
X89119Y-81761D02*
X89195Y-81761D01*
X89233Y-81780D01*
X89271Y-81819D01*
X89290Y-81895D01*
X89290Y-82028D01*
X89271Y-82104D01*
X89233Y-82142D01*
X89195Y-82161D01*
X89119Y-82161D01*
X89080Y-82142D01*
X89042Y-82104D01*
X89023Y-82028D01*
X89023Y-81895D01*
X89042Y-81819D01*
X89080Y-81780D01*
X89119Y-81761D01*
X89404Y-81761D02*
X89633Y-81761D01*
X89519Y-82161D02*
X89519Y-81761D01*
X89842Y-81761D02*
X89919Y-81761D01*
X89957Y-81780D01*
X89995Y-81819D01*
X90014Y-81895D01*
X90014Y-82028D01*
X89995Y-82104D01*
X89957Y-82142D01*
X89919Y-82161D01*
X89842Y-82161D01*
X89804Y-82142D01*
X89766Y-82104D01*
X89747Y-82028D01*
X89747Y-81895D01*
X89766Y-81819D01*
X89804Y-81780D01*
X89842Y-81761D01*
X90414Y-82161D02*
X90280Y-81971D01*
X90185Y-82161D02*
X90185Y-81761D01*
X90338Y-81761D01*
X90376Y-81780D01*
X90395Y-81800D01*
X90414Y-81838D01*
X90414Y-81895D01*
X90395Y-81933D01*
X90376Y-81952D01*
X90338Y-81971D01*
X90185Y-81971D01*
X90547Y-81761D02*
X90795Y-81761D01*
X90661Y-81914D01*
X90719Y-81914D01*
X90757Y-81933D01*
X90776Y-81952D01*
X90795Y-81990D01*
X90795Y-82085D01*
X90776Y-82123D01*
X90757Y-82142D01*
X90719Y-82161D01*
X90604Y-82161D01*
X90566Y-82142D01*
X90547Y-82123D01*
X88414Y-80161D02*
X88414Y-79761D01*
X88566Y-79761D01*
X88604Y-79780D01*
X88623Y-79800D01*
X88642Y-79838D01*
X88642Y-79895D01*
X88623Y-79933D01*
X88604Y-79952D01*
X88566Y-79971D01*
X88414Y-79971D01*
X88814Y-80161D02*
X88814Y-79761D01*
X88814Y-79952D02*
X89042Y-79952D01*
X89042Y-80161D02*
X89042Y-79761D01*
X89309Y-79761D02*
X89385Y-79761D01*
X89423Y-79780D01*
X89461Y-79819D01*
X89480Y-79895D01*
X89480Y-80028D01*
X89461Y-80104D01*
X89423Y-80142D01*
X89385Y-80161D01*
X89309Y-80161D01*
X89271Y-80142D01*
X89233Y-80104D01*
X89214Y-80028D01*
X89214Y-79895D01*
X89233Y-79819D01*
X89271Y-79780D01*
X89309Y-79761D01*
X89595Y-79761D02*
X89823Y-79761D01*
X89709Y-80161D02*
X89709Y-79761D01*
X90033Y-79761D02*
X90109Y-79761D01*
X90147Y-79780D01*
X90185Y-79819D01*
X90204Y-79895D01*
X90204Y-80028D01*
X90185Y-80104D01*
X90147Y-80142D01*
X90109Y-80161D01*
X90033Y-80161D01*
X89995Y-80142D01*
X89957Y-80104D01*
X89938Y-80028D01*
X89938Y-79895D01*
X89957Y-79819D01*
X89995Y-79780D01*
X90033Y-79761D01*
X90604Y-80161D02*
X90471Y-79971D01*
X90376Y-80161D02*
X90376Y-79761D01*
X90528Y-79761D01*
X90566Y-79780D01*
X90585Y-79800D01*
X90604Y-79838D01*
X90604Y-79895D01*
X90585Y-79933D01*
X90566Y-79952D01*
X90528Y-79971D01*
X90376Y-79971D01*
X99933Y-87123D02*
X99914Y-87142D01*
X99857Y-87161D01*
X99819Y-87161D01*
X99761Y-87142D01*
X99723Y-87104D01*
X99704Y-87066D01*
X99685Y-86990D01*
X99685Y-86933D01*
X99704Y-86857D01*
X99723Y-86819D01*
X99761Y-86780D01*
X99819Y-86761D01*
X99857Y-86761D01*
X99914Y-86780D01*
X99933Y-86800D01*
X100314Y-87161D02*
X100085Y-87161D01*
X100200Y-87161D02*
X100200Y-86761D01*
X100161Y-86819D01*
X100123Y-86857D01*
X100085Y-86876D01*
X99342Y-84800D02*
X99361Y-84780D01*
X99400Y-84761D01*
X99495Y-84761D01*
X99533Y-84780D01*
X99552Y-84800D01*
X99571Y-84838D01*
X99571Y-84876D01*
X99552Y-84933D01*
X99323Y-85161D01*
X99571Y-85161D01*
X99723Y-84800D02*
X99742Y-84780D01*
X99780Y-84761D01*
X99876Y-84761D01*
X99914Y-84780D01*
X99933Y-84800D01*
X99952Y-84838D01*
X99952Y-84876D01*
X99933Y-84933D01*
X99704Y-85161D01*
X99952Y-85161D01*
X100295Y-84895D02*
X100295Y-85161D01*
X100123Y-84895D02*
X100123Y-85104D01*
X100142Y-85142D01*
X100180Y-85161D01*
X100238Y-85161D01*
X100276Y-85142D01*
X100295Y-85123D01*
X100619Y-84952D02*
X100485Y-84952D01*
X100485Y-85161D02*
X100485Y-84761D01*
X100676Y-84761D01*
X98723Y-82161D02*
X98723Y-81761D01*
X98876Y-81761D01*
X98914Y-81780D01*
X98933Y-81800D01*
X98952Y-81838D01*
X98952Y-81895D01*
X98933Y-81933D01*
X98914Y-81952D01*
X98876Y-81971D01*
X98723Y-81971D01*
X99123Y-82161D02*
X99123Y-81761D01*
X99123Y-81952D02*
X99352Y-81952D01*
X99352Y-82161D02*
X99352Y-81761D01*
X99619Y-81761D02*
X99695Y-81761D01*
X99733Y-81780D01*
X99771Y-81819D01*
X99790Y-81895D01*
X99790Y-82028D01*
X99771Y-82104D01*
X99733Y-82142D01*
X99695Y-82161D01*
X99619Y-82161D01*
X99580Y-82142D01*
X99542Y-82104D01*
X99523Y-82028D01*
X99523Y-81895D01*
X99542Y-81819D01*
X99580Y-81780D01*
X99619Y-81761D01*
X99904Y-81761D02*
X100133Y-81761D01*
X100019Y-82161D02*
X100019Y-81761D01*
X100342Y-81761D02*
X100419Y-81761D01*
X100457Y-81780D01*
X100495Y-81819D01*
X100514Y-81895D01*
X100514Y-82028D01*
X100495Y-82104D01*
X100457Y-82142D01*
X100419Y-82161D01*
X100342Y-82161D01*
X100304Y-82142D01*
X100266Y-82104D01*
X100247Y-82028D01*
X100247Y-81895D01*
X100266Y-81819D01*
X100304Y-81780D01*
X100342Y-81761D01*
X100914Y-82161D02*
X100780Y-81971D01*
X100685Y-82161D02*
X100685Y-81761D01*
X100838Y-81761D01*
X100876Y-81780D01*
X100895Y-81800D01*
X100914Y-81838D01*
X100914Y-81895D01*
X100895Y-81933D01*
X100876Y-81952D01*
X100838Y-81971D01*
X100685Y-81971D01*
X101295Y-82161D02*
X101066Y-82161D01*
X101180Y-82161D02*
X101180Y-81761D01*
X101142Y-81819D01*
X101104Y-81857D01*
X101066Y-81876D01*
X98914Y-80161D02*
X98914Y-79761D01*
X99066Y-79761D01*
X99104Y-79780D01*
X99123Y-79800D01*
X99142Y-79838D01*
X99142Y-79895D01*
X99123Y-79933D01*
X99104Y-79952D01*
X99066Y-79971D01*
X98914Y-79971D01*
X99314Y-80161D02*
X99314Y-79761D01*
X99314Y-79952D02*
X99542Y-79952D01*
X99542Y-80161D02*
X99542Y-79761D01*
X99809Y-79761D02*
X99885Y-79761D01*
X99923Y-79780D01*
X99961Y-79819D01*
X99980Y-79895D01*
X99980Y-80028D01*
X99961Y-80104D01*
X99923Y-80142D01*
X99885Y-80161D01*
X99809Y-80161D01*
X99771Y-80142D01*
X99733Y-80104D01*
X99714Y-80028D01*
X99714Y-79895D01*
X99733Y-79819D01*
X99771Y-79780D01*
X99809Y-79761D01*
X100095Y-79761D02*
X100323Y-79761D01*
X100209Y-80161D02*
X100209Y-79761D01*
X100533Y-79761D02*
X100609Y-79761D01*
X100647Y-79780D01*
X100685Y-79819D01*
X100704Y-79895D01*
X100704Y-80028D01*
X100685Y-80104D01*
X100647Y-80142D01*
X100609Y-80161D01*
X100533Y-80161D01*
X100495Y-80142D01*
X100457Y-80104D01*
X100438Y-80028D01*
X100438Y-79895D01*
X100457Y-79819D01*
X100495Y-79780D01*
X100533Y-79761D01*
X101104Y-80161D02*
X100971Y-79971D01*
X100876Y-80161D02*
X100876Y-79761D01*
X101028Y-79761D01*
X101066Y-79780D01*
X101085Y-79800D01*
X101104Y-79838D01*
X101104Y-79895D01*
X101085Y-79933D01*
X101066Y-79952D01*
X101028Y-79971D01*
X100876Y-79971D01*
X89433Y-87123D02*
X89414Y-87142D01*
X89357Y-87161D01*
X89319Y-87161D01*
X89261Y-87142D01*
X89223Y-87104D01*
X89204Y-87066D01*
X89185Y-86990D01*
X89185Y-86933D01*
X89204Y-86857D01*
X89223Y-86819D01*
X89261Y-86780D01*
X89319Y-86761D01*
X89357Y-86761D01*
X89414Y-86780D01*
X89433Y-86800D01*
X89566Y-86761D02*
X89814Y-86761D01*
X89680Y-86914D01*
X89738Y-86914D01*
X89776Y-86933D01*
X89795Y-86952D01*
X89814Y-86990D01*
X89814Y-87085D01*
X89795Y-87123D01*
X89776Y-87142D01*
X89738Y-87161D01*
X89623Y-87161D01*
X89585Y-87142D01*
X89566Y-87123D01*
X88842Y-84800D02*
X88861Y-84780D01*
X88900Y-84761D01*
X88995Y-84761D01*
X89033Y-84780D01*
X89052Y-84800D01*
X89071Y-84838D01*
X89071Y-84876D01*
X89052Y-84933D01*
X88823Y-85161D01*
X89071Y-85161D01*
X89223Y-84800D02*
X89242Y-84780D01*
X89280Y-84761D01*
X89376Y-84761D01*
X89414Y-84780D01*
X89433Y-84800D01*
X89452Y-84838D01*
X89452Y-84876D01*
X89433Y-84933D01*
X89204Y-85161D01*
X89452Y-85161D01*
X89795Y-84895D02*
X89795Y-85161D01*
X89623Y-84895D02*
X89623Y-85104D01*
X89642Y-85142D01*
X89680Y-85161D01*
X89738Y-85161D01*
X89776Y-85142D01*
X89795Y-85123D01*
X90119Y-84952D02*
X89985Y-84952D01*
X89985Y-85161D02*
X89985Y-84761D01*
X90176Y-84761D01*
M02*
