M48
INCH,TZ
T1C0.032
T2C0.040
T3C0.125
%
G90
G05
T1
X069500Y-071000
X069500Y-074000
X069543Y-068250
X070250Y-067543
X070250Y-068957
X070500Y-071000
X070500Y-074000
X074250Y-074000
X075250Y-074000
X081500Y-073750
X081500Y-074750
X084000Y-073000
X085293Y-074250
X085500Y-076500
X086000Y-073543
X086500Y-076500
X086707Y-074250
X090500Y-073750
X090500Y-074750
X096000Y-070050
X096000Y-071050
X096250Y-073000
X096500Y-075250
X096543Y-068250
X097250Y-067543
X097250Y-068957
X097250Y-073000
X097500Y-075250
T2
X070250Y-077250
X070250Y-079250
X074750Y-077250
X074750Y-079250
X081500Y-077250
X081500Y-079250
X090500Y-077250
X090500Y-079250
X097000Y-077250
X097000Y-079250
X101000Y-077250
X101000Y-079250
T3
X077500Y-067000
X093500Y-067000
T1
X092000Y-072890G85X092000Y-073110
G05
T0
M30
