G04 #@! TF.FileFunction,Legend,Top*
%FSLAX46Y46*%
G04 Gerber Fmt 4.6, Leading zero omitted, Abs format (unit mm)*
G04 Created by KiCad (PCBNEW (2015-07-01 BZR 5850)-product) date Fri Aug 21 14:42:13 2015*
%MOMM*%
G01*
G04 APERTURE LIST*
%ADD10C,0.150000*%
%ADD11C,0.203200*%
%ADD12C,0.100000*%
%ADD13C,0.304800*%
%ADD14C,0.076200*%
%ADD15C,0.254000*%
%ADD16C,0.152400*%
%ADD17C,0.381000*%
%ADD18R,1.905000X1.905000*%
%ADD19C,1.905000*%
%ADD20C,1.778000*%
%ADD21R,1.778000X1.778000*%
%ADD22C,5.080000*%
%ADD23C,1.676400*%
%ADD24R,1.676400X1.676400*%
%ADD25C,1.397000*%
G04 APERTURE END LIST*
D10*
D11*
X236522381Y-173482000D02*
X236401429Y-173421524D01*
X236220000Y-173421524D01*
X236038572Y-173482000D01*
X235917619Y-173602952D01*
X235857143Y-173723905D01*
X235796667Y-173965810D01*
X235796667Y-174147238D01*
X235857143Y-174389143D01*
X235917619Y-174510095D01*
X236038572Y-174631048D01*
X236220000Y-174691524D01*
X236340952Y-174691524D01*
X236522381Y-174631048D01*
X236582857Y-174570571D01*
X236582857Y-174147238D01*
X236340952Y-174147238D01*
X237127143Y-174691524D02*
X237127143Y-173421524D01*
X237852857Y-174691524D01*
X237852857Y-173421524D01*
X238457619Y-174691524D02*
X238457619Y-173421524D01*
X238760000Y-173421524D01*
X238941428Y-173482000D01*
X239062381Y-173602952D01*
X239122857Y-173723905D01*
X239183333Y-173965810D01*
X239183333Y-174147238D01*
X239122857Y-174389143D01*
X239062381Y-174510095D01*
X238941428Y-174631048D01*
X238760000Y-174691524D01*
X238457619Y-174691524D01*
X195217143Y-174207714D02*
X196184762Y-174207714D01*
X195700952Y-174691524D02*
X195700952Y-173723905D01*
X196668572Y-173421524D02*
X197454762Y-173421524D01*
X197031429Y-173905333D01*
X197212857Y-173905333D01*
X197333810Y-173965810D01*
X197394286Y-174026286D01*
X197454762Y-174147238D01*
X197454762Y-174449619D01*
X197394286Y-174570571D01*
X197333810Y-174631048D01*
X197212857Y-174691524D01*
X196850000Y-174691524D01*
X196729048Y-174631048D01*
X196668572Y-174570571D01*
X197817619Y-173421524D02*
X198240953Y-174691524D01*
X198664286Y-173421524D01*
D12*
X262890000Y-170180000D02*
X262890000Y-200660000D01*
X175260000Y-166370000D02*
X259080000Y-166370000D01*
X171450000Y-200660000D02*
X171450000Y-170180000D01*
X259080000Y-204470000D02*
X175260000Y-204470000D01*
X259080000Y-204470000D02*
G75*
G03X262890000Y-200660000I0J3810000D01*
G01*
X175260000Y-166370000D02*
G75*
G03X171450000Y-170180000I0J-3810000D01*
G01*
X262890000Y-170180000D02*
G75*
G03X259080000Y-166370000I-3810000J0D01*
G01*
X171450000Y-200660000D02*
G75*
G03X175260000Y-204470000I3810000J0D01*
G01*
D13*
X211455000Y-198755000D02*
G75*
G03X211455000Y-198755000I-4445000J0D01*
G01*
X182880000Y-198755000D02*
G75*
G03X182880000Y-198755000I-4445000J0D01*
G01*
X250825000Y-198755000D02*
G75*
G03X250825000Y-198755000I-4445000J0D01*
G01*
D10*
X199136000Y-170180000D02*
G75*
G03X199136000Y-170180000I-2286000J0D01*
G01*
X239776000Y-170180000D02*
G75*
G03X239776000Y-170180000I-2286000J0D01*
G01*
D13*
X234315000Y-198755000D02*
G75*
G03X234315000Y-198755000I-4445000J0D01*
G01*
X260985000Y-198755000D02*
G75*
G03X260985000Y-198755000I-4445000J0D01*
G01*
X194310000Y-198755000D02*
G75*
G03X194310000Y-198755000I-4445000J0D01*
G01*
D11*
X221284800Y-196215000D02*
X221284800Y-192405000D01*
D14*
X220490051Y-194310000D02*
G75*
G03X220490051Y-194310000I-1796051J0D01*
G01*
D15*
X221231997Y-192402332D02*
G75*
G03X221234000Y-196215000I-2537997J-1907668D01*
G01*
D16*
X218694000Y-193167000D02*
G75*
G03X217551000Y-194310000I0J-1143000D01*
G01*
X218694000Y-195453000D02*
G75*
G03X219837000Y-194310000I0J1143000D01*
G01*
X218694000Y-192659000D02*
G75*
G03X217043000Y-194310000I0J-1651000D01*
G01*
X218694000Y-195961000D02*
G75*
G03X220345000Y-194310000I0J1651000D01*
G01*
X218694000Y-192151000D02*
G75*
G03X216535000Y-194310000I0J-2159000D01*
G01*
X218694000Y-196469000D02*
G75*
G03X220853000Y-194310000I0J2159000D01*
G01*
D11*
X248589800Y-187325000D02*
X248589800Y-183515000D01*
D14*
X247795051Y-185420000D02*
G75*
G03X247795051Y-185420000I-1796051J0D01*
G01*
D15*
X248536997Y-183512332D02*
G75*
G03X248539000Y-187325000I-2537997J-1907668D01*
G01*
D16*
X245999000Y-184277000D02*
G75*
G03X244856000Y-185420000I0J-1143000D01*
G01*
X245999000Y-186563000D02*
G75*
G03X247142000Y-185420000I0J1143000D01*
G01*
X245999000Y-183769000D02*
G75*
G03X244348000Y-185420000I0J-1651000D01*
G01*
X245999000Y-187071000D02*
G75*
G03X247650000Y-185420000I0J1651000D01*
G01*
X245999000Y-183261000D02*
G75*
G03X243840000Y-185420000I0J-2159000D01*
G01*
X245999000Y-187579000D02*
G75*
G03X248158000Y-185420000I0J2159000D01*
G01*
D11*
X192709800Y-189865000D02*
X192709800Y-186055000D01*
D14*
X191915051Y-187960000D02*
G75*
G03X191915051Y-187960000I-1796051J0D01*
G01*
D15*
X192656997Y-186052332D02*
G75*
G03X192659000Y-189865000I-2537997J-1907668D01*
G01*
D16*
X190119000Y-186817000D02*
G75*
G03X188976000Y-187960000I0J-1143000D01*
G01*
X190119000Y-189103000D02*
G75*
G03X191262000Y-187960000I0J1143000D01*
G01*
X190119000Y-186309000D02*
G75*
G03X188468000Y-187960000I0J-1651000D01*
G01*
X190119000Y-189611000D02*
G75*
G03X191770000Y-187960000I0J1651000D01*
G01*
X190119000Y-185801000D02*
G75*
G03X187960000Y-187960000I0J-2159000D01*
G01*
X190119000Y-190119000D02*
G75*
G03X192278000Y-187960000I0J2159000D01*
G01*
D13*
X179333026Y-176049077D02*
X179333026Y-170660923D01*
X179333026Y-170660923D02*
X178435000Y-169762898D01*
X178435000Y-169762898D02*
X176638949Y-169762898D01*
X176638949Y-169762898D02*
X174842898Y-171558949D01*
X174842898Y-171558949D02*
X174842898Y-175151051D01*
X174842898Y-175151051D02*
X176638949Y-176947102D01*
X176638949Y-176947102D02*
X178435000Y-176947102D01*
X178435000Y-176947102D02*
X179333026Y-176049077D01*
X215745923Y-189493026D02*
X221134077Y-189493026D01*
X221134077Y-189493026D02*
X222032102Y-188595000D01*
X222032102Y-188595000D02*
X222032102Y-186798949D01*
X222032102Y-186798949D02*
X220236051Y-185002898D01*
X220236051Y-185002898D02*
X216643949Y-185002898D01*
X216643949Y-185002898D02*
X214847898Y-186798949D01*
X214847898Y-186798949D02*
X214847898Y-188595000D01*
X214847898Y-188595000D02*
X215745923Y-189493026D01*
X247913026Y-176049077D02*
X247913026Y-170660923D01*
X247913026Y-170660923D02*
X247015000Y-169762898D01*
X247015000Y-169762898D02*
X245218949Y-169762898D01*
X245218949Y-169762898D02*
X243422898Y-171558949D01*
X243422898Y-171558949D02*
X243422898Y-175151051D01*
X243422898Y-175151051D02*
X245218949Y-176947102D01*
X245218949Y-176947102D02*
X247015000Y-176947102D01*
X247015000Y-176947102D02*
X247913026Y-176049077D01*
D17*
X176530000Y-180340000D02*
X179070000Y-180340000D01*
X177949903Y-180340000D02*
G75*
G03X177949903Y-180340000I-1419903J0D01*
G01*
X207010000Y-187325000D02*
X207010000Y-189865000D01*
X208429903Y-187325000D02*
G75*
G03X208429903Y-187325000I-1419903J0D01*
G01*
X229870000Y-187325000D02*
X229870000Y-189865000D01*
X231289903Y-187325000D02*
G75*
G03X231289903Y-187325000I-1419903J0D01*
G01*
X245110000Y-191135000D02*
X247650000Y-191135000D01*
X246529903Y-191135000D02*
G75*
G03X246529903Y-191135000I-1419903J0D01*
G01*
X243840000Y-180467000D02*
X243840000Y-177927000D01*
X245259903Y-180467000D02*
G75*
G03X245259903Y-180467000I-1419903J0D01*
G01*
X176530000Y-187960000D02*
X179070000Y-187960000D01*
X177949903Y-187960000D02*
G75*
G03X177949903Y-187960000I-1419903J0D01*
G01*
D11*
X202123524Y-202806904D02*
X200853524Y-202806904D01*
X200853524Y-202323095D01*
X200914000Y-202202142D01*
X200974476Y-202141666D01*
X201095429Y-202081190D01*
X201276857Y-202081190D01*
X201397810Y-202141666D01*
X201458286Y-202202142D01*
X201518762Y-202323095D01*
X201518762Y-202806904D01*
X202123524Y-201536904D02*
X200853524Y-201536904D01*
X201458286Y-201536904D02*
X201458286Y-200811190D01*
X202123524Y-200811190D02*
X200853524Y-200811190D01*
X200853524Y-199964523D02*
X200853524Y-199722619D01*
X200914000Y-199601666D01*
X201034952Y-199480714D01*
X201276857Y-199420238D01*
X201700190Y-199420238D01*
X201942095Y-199480714D01*
X202063048Y-199601666D01*
X202123524Y-199722619D01*
X202123524Y-199964523D01*
X202063048Y-200085476D01*
X201942095Y-200206428D01*
X201700190Y-200266904D01*
X201276857Y-200266904D01*
X201034952Y-200206428D01*
X200914000Y-200085476D01*
X200853524Y-199964523D01*
X200853524Y-199057381D02*
X200853524Y-198331666D01*
X202123524Y-198694523D02*
X200853524Y-198694523D01*
X200853524Y-197666428D02*
X200853524Y-197424524D01*
X200914000Y-197303571D01*
X201034952Y-197182619D01*
X201276857Y-197122143D01*
X201700190Y-197122143D01*
X201942095Y-197182619D01*
X202063048Y-197303571D01*
X202123524Y-197424524D01*
X202123524Y-197666428D01*
X202063048Y-197787381D01*
X201942095Y-197908333D01*
X201700190Y-197968809D01*
X201276857Y-197968809D01*
X201034952Y-197908333D01*
X200914000Y-197787381D01*
X200853524Y-197666428D01*
X202123524Y-195852143D02*
X201518762Y-196275476D01*
X202123524Y-196577857D02*
X200853524Y-196577857D01*
X200853524Y-196094048D01*
X200914000Y-195973095D01*
X200974476Y-195912619D01*
X201095429Y-195852143D01*
X201276857Y-195852143D01*
X201397810Y-195912619D01*
X201458286Y-195973095D01*
X201518762Y-196094048D01*
X201518762Y-196577857D01*
X200974476Y-195368333D02*
X200914000Y-195307857D01*
X200853524Y-195186905D01*
X200853524Y-194884524D01*
X200914000Y-194763571D01*
X200974476Y-194703095D01*
X201095429Y-194642619D01*
X201216381Y-194642619D01*
X201397810Y-194703095D01*
X202123524Y-195428809D01*
X202123524Y-194642619D01*
X173548524Y-202806904D02*
X172278524Y-202806904D01*
X172278524Y-202323095D01*
X172339000Y-202202142D01*
X172399476Y-202141666D01*
X172520429Y-202081190D01*
X172701857Y-202081190D01*
X172822810Y-202141666D01*
X172883286Y-202202142D01*
X172943762Y-202323095D01*
X172943762Y-202806904D01*
X173548524Y-201536904D02*
X172278524Y-201536904D01*
X172883286Y-201536904D02*
X172883286Y-200811190D01*
X173548524Y-200811190D02*
X172278524Y-200811190D01*
X172278524Y-199964523D02*
X172278524Y-199722619D01*
X172339000Y-199601666D01*
X172459952Y-199480714D01*
X172701857Y-199420238D01*
X173125190Y-199420238D01*
X173367095Y-199480714D01*
X173488048Y-199601666D01*
X173548524Y-199722619D01*
X173548524Y-199964523D01*
X173488048Y-200085476D01*
X173367095Y-200206428D01*
X173125190Y-200266904D01*
X172701857Y-200266904D01*
X172459952Y-200206428D01*
X172339000Y-200085476D01*
X172278524Y-199964523D01*
X172278524Y-199057381D02*
X172278524Y-198331666D01*
X173548524Y-198694523D02*
X172278524Y-198694523D01*
X172278524Y-197666428D02*
X172278524Y-197424524D01*
X172339000Y-197303571D01*
X172459952Y-197182619D01*
X172701857Y-197122143D01*
X173125190Y-197122143D01*
X173367095Y-197182619D01*
X173488048Y-197303571D01*
X173548524Y-197424524D01*
X173548524Y-197666428D01*
X173488048Y-197787381D01*
X173367095Y-197908333D01*
X173125190Y-197968809D01*
X172701857Y-197968809D01*
X172459952Y-197908333D01*
X172339000Y-197787381D01*
X172278524Y-197666428D01*
X173548524Y-195852143D02*
X172943762Y-196275476D01*
X173548524Y-196577857D02*
X172278524Y-196577857D01*
X172278524Y-196094048D01*
X172339000Y-195973095D01*
X172399476Y-195912619D01*
X172520429Y-195852143D01*
X172701857Y-195852143D01*
X172822810Y-195912619D01*
X172883286Y-195973095D01*
X172943762Y-196094048D01*
X172943762Y-196577857D01*
X172278524Y-195428809D02*
X172278524Y-194642619D01*
X172762333Y-195065952D01*
X172762333Y-194884524D01*
X172822810Y-194763571D01*
X172883286Y-194703095D01*
X173004238Y-194642619D01*
X173306619Y-194642619D01*
X173427571Y-194703095D01*
X173488048Y-194763571D01*
X173548524Y-194884524D01*
X173548524Y-195247381D01*
X173488048Y-195368333D01*
X173427571Y-195428809D01*
X241493524Y-202806904D02*
X240223524Y-202806904D01*
X240223524Y-202323095D01*
X240284000Y-202202142D01*
X240344476Y-202141666D01*
X240465429Y-202081190D01*
X240646857Y-202081190D01*
X240767810Y-202141666D01*
X240828286Y-202202142D01*
X240888762Y-202323095D01*
X240888762Y-202806904D01*
X241493524Y-201536904D02*
X240223524Y-201536904D01*
X240828286Y-201536904D02*
X240828286Y-200811190D01*
X241493524Y-200811190D02*
X240223524Y-200811190D01*
X240223524Y-199964523D02*
X240223524Y-199722619D01*
X240284000Y-199601666D01*
X240404952Y-199480714D01*
X240646857Y-199420238D01*
X241070190Y-199420238D01*
X241312095Y-199480714D01*
X241433048Y-199601666D01*
X241493524Y-199722619D01*
X241493524Y-199964523D01*
X241433048Y-200085476D01*
X241312095Y-200206428D01*
X241070190Y-200266904D01*
X240646857Y-200266904D01*
X240404952Y-200206428D01*
X240284000Y-200085476D01*
X240223524Y-199964523D01*
X240223524Y-199057381D02*
X240223524Y-198331666D01*
X241493524Y-198694523D02*
X240223524Y-198694523D01*
X240223524Y-197666428D02*
X240223524Y-197424524D01*
X240284000Y-197303571D01*
X240404952Y-197182619D01*
X240646857Y-197122143D01*
X241070190Y-197122143D01*
X241312095Y-197182619D01*
X241433048Y-197303571D01*
X241493524Y-197424524D01*
X241493524Y-197666428D01*
X241433048Y-197787381D01*
X241312095Y-197908333D01*
X241070190Y-197968809D01*
X240646857Y-197968809D01*
X240404952Y-197908333D01*
X240284000Y-197787381D01*
X240223524Y-197666428D01*
X241493524Y-195852143D02*
X240888762Y-196275476D01*
X241493524Y-196577857D02*
X240223524Y-196577857D01*
X240223524Y-196094048D01*
X240284000Y-195973095D01*
X240344476Y-195912619D01*
X240465429Y-195852143D01*
X240646857Y-195852143D01*
X240767810Y-195912619D01*
X240828286Y-195973095D01*
X240888762Y-196094048D01*
X240888762Y-196577857D01*
X241493524Y-194642619D02*
X241493524Y-195368333D01*
X241493524Y-195005476D02*
X240223524Y-195005476D01*
X240404952Y-195126428D01*
X240525905Y-195247381D01*
X240586381Y-195368333D01*
X236038571Y-198966667D02*
X236099048Y-199027143D01*
X236159524Y-199208572D01*
X236159524Y-199329524D01*
X236099048Y-199510952D01*
X235978095Y-199631905D01*
X235857143Y-199692381D01*
X235615238Y-199752857D01*
X235433810Y-199752857D01*
X235191905Y-199692381D01*
X235070952Y-199631905D01*
X234950000Y-199510952D01*
X234889524Y-199329524D01*
X234889524Y-199208572D01*
X234950000Y-199027143D01*
X235010476Y-198966667D01*
X235010476Y-198482857D02*
X234950000Y-198422381D01*
X234889524Y-198301429D01*
X234889524Y-197999048D01*
X234950000Y-197878095D01*
X235010476Y-197817619D01*
X235131429Y-197757143D01*
X235252381Y-197757143D01*
X235433810Y-197817619D01*
X236159524Y-198543333D01*
X236159524Y-197757143D01*
X262708571Y-198966667D02*
X262769048Y-199027143D01*
X262829524Y-199208572D01*
X262829524Y-199329524D01*
X262769048Y-199510952D01*
X262648095Y-199631905D01*
X262527143Y-199692381D01*
X262285238Y-199752857D01*
X262103810Y-199752857D01*
X261861905Y-199692381D01*
X261740952Y-199631905D01*
X261620000Y-199510952D01*
X261559524Y-199329524D01*
X261559524Y-199208572D01*
X261620000Y-199027143D01*
X261680476Y-198966667D01*
X262829524Y-197757143D02*
X262829524Y-198482857D01*
X262829524Y-198120000D02*
X261559524Y-198120000D01*
X261740952Y-198240952D01*
X261861905Y-198361905D01*
X261922381Y-198482857D01*
X196033571Y-198966667D02*
X196094048Y-199027143D01*
X196154524Y-199208572D01*
X196154524Y-199329524D01*
X196094048Y-199510952D01*
X195973095Y-199631905D01*
X195852143Y-199692381D01*
X195610238Y-199752857D01*
X195428810Y-199752857D01*
X195186905Y-199692381D01*
X195065952Y-199631905D01*
X194945000Y-199510952D01*
X194884524Y-199329524D01*
X194884524Y-199208572D01*
X194945000Y-199027143D01*
X195005476Y-198966667D01*
X194884524Y-198543333D02*
X194884524Y-197757143D01*
X195368333Y-198180476D01*
X195368333Y-197999048D01*
X195428810Y-197878095D01*
X195489286Y-197817619D01*
X195610238Y-197757143D01*
X195912619Y-197757143D01*
X196033571Y-197817619D01*
X196094048Y-197878095D01*
X196154524Y-197999048D01*
X196154524Y-198361905D01*
X196094048Y-198482857D01*
X196033571Y-198543333D01*
X224475524Y-195247381D02*
X223205524Y-195247381D01*
X223205524Y-194945000D01*
X223266000Y-194763572D01*
X223386952Y-194642619D01*
X223507905Y-194582143D01*
X223749810Y-194521667D01*
X223931238Y-194521667D01*
X224173143Y-194582143D01*
X224294095Y-194642619D01*
X224415048Y-194763572D01*
X224475524Y-194945000D01*
X224475524Y-195247381D01*
X223326476Y-194037857D02*
X223266000Y-193977381D01*
X223205524Y-193856429D01*
X223205524Y-193554048D01*
X223266000Y-193433095D01*
X223326476Y-193372619D01*
X223447429Y-193312143D01*
X223568381Y-193312143D01*
X223749810Y-193372619D01*
X224475524Y-194098333D01*
X224475524Y-193312143D01*
X251780524Y-186357381D02*
X250510524Y-186357381D01*
X250510524Y-186055000D01*
X250571000Y-185873572D01*
X250691952Y-185752619D01*
X250812905Y-185692143D01*
X251054810Y-185631667D01*
X251236238Y-185631667D01*
X251478143Y-185692143D01*
X251599095Y-185752619D01*
X251720048Y-185873572D01*
X251780524Y-186055000D01*
X251780524Y-186357381D01*
X251780524Y-184422143D02*
X251780524Y-185147857D01*
X251780524Y-184785000D02*
X250510524Y-184785000D01*
X250691952Y-184905952D01*
X250812905Y-185026905D01*
X250873381Y-185147857D01*
X195900524Y-188897381D02*
X194630524Y-188897381D01*
X194630524Y-188595000D01*
X194691000Y-188413572D01*
X194811952Y-188292619D01*
X194932905Y-188232143D01*
X195174810Y-188171667D01*
X195356238Y-188171667D01*
X195598143Y-188232143D01*
X195719095Y-188292619D01*
X195840048Y-188413572D01*
X195900524Y-188595000D01*
X195900524Y-188897381D01*
X194630524Y-187748333D02*
X194630524Y-186962143D01*
X195114333Y-187385476D01*
X195114333Y-187204048D01*
X195174810Y-187083095D01*
X195235286Y-187022619D01*
X195356238Y-186962143D01*
X195658619Y-186962143D01*
X195779571Y-187022619D01*
X195840048Y-187083095D01*
X195900524Y-187204048D01*
X195900524Y-187566905D01*
X195840048Y-187687857D01*
X195779571Y-187748333D01*
X174650250Y-169614301D02*
X174521960Y-169657064D01*
X174350908Y-169657064D01*
X174094329Y-169657064D01*
X173966040Y-169699827D01*
X173880514Y-169785353D01*
X174137093Y-169956406D02*
X174008803Y-169999170D01*
X173837750Y-169999169D01*
X173623935Y-169870879D01*
X173324593Y-169571538D01*
X173196303Y-169357722D01*
X173196303Y-169186670D01*
X173239067Y-169058380D01*
X173410119Y-168887329D01*
X173538409Y-168844565D01*
X173709461Y-168844565D01*
X173923276Y-168972855D01*
X174222618Y-169272196D01*
X174350907Y-169486012D01*
X174350908Y-169657064D01*
X174308144Y-169785354D01*
X174137093Y-169956406D01*
X173923277Y-168374171D02*
X174479197Y-167818250D01*
X174521960Y-168459697D01*
X174650249Y-168331408D01*
X174778539Y-168288645D01*
X174864065Y-168288645D01*
X174992354Y-168331408D01*
X175206170Y-168545223D01*
X175248933Y-168673512D01*
X175248934Y-168759039D01*
X175206170Y-168887329D01*
X174949591Y-169143907D01*
X174821302Y-169186670D01*
X174735776Y-169186669D01*
X218973250Y-183838302D02*
X218844960Y-183881065D01*
X218673908Y-183881065D01*
X218417329Y-183881065D01*
X218289040Y-183923828D01*
X218203514Y-184009354D01*
X218460093Y-184180407D02*
X218331803Y-184223171D01*
X218160750Y-184223170D01*
X217946935Y-184094880D01*
X217647593Y-183795539D01*
X217519303Y-183581723D01*
X217519303Y-183410671D01*
X217562067Y-183282381D01*
X217733119Y-183111330D01*
X217861409Y-183068566D01*
X218032461Y-183068566D01*
X218246276Y-183196856D01*
X218545618Y-183496197D01*
X218673907Y-183710013D01*
X218673908Y-183881065D01*
X218631144Y-184009355D01*
X218460093Y-184180407D01*
X218374566Y-182640935D02*
X218374566Y-182555409D01*
X218417329Y-182427120D01*
X218631144Y-182213304D01*
X218759434Y-182170540D01*
X218844960Y-182170540D01*
X218973250Y-182213304D01*
X219058776Y-182298830D01*
X219144302Y-182469883D01*
X219144302Y-183496197D01*
X219700223Y-182940277D01*
X242976250Y-169360302D02*
X242847960Y-169403065D01*
X242676908Y-169403065D01*
X242420329Y-169403065D01*
X242292040Y-169445828D01*
X242206514Y-169531354D01*
X242463093Y-169702407D02*
X242334803Y-169745171D01*
X242163750Y-169745170D01*
X241949935Y-169616880D01*
X241650593Y-169317539D01*
X241522303Y-169103723D01*
X241522303Y-168932671D01*
X241565067Y-168804381D01*
X241736119Y-168633330D01*
X241864409Y-168590566D01*
X242035461Y-168590566D01*
X242249276Y-168718856D01*
X242548618Y-169018197D01*
X242676907Y-169232013D01*
X242676908Y-169403065D01*
X242634144Y-169531355D01*
X242463093Y-169702407D01*
X243703223Y-168462277D02*
X243190065Y-168975434D01*
X243446644Y-168718856D02*
X242548619Y-167820830D01*
X242591381Y-168034645D01*
X242591381Y-168205698D01*
X242548619Y-168333987D01*
X173548524Y-180551667D02*
X172943762Y-180975000D01*
X173548524Y-181277381D02*
X172278524Y-181277381D01*
X172278524Y-180793572D01*
X172339000Y-180672619D01*
X172399476Y-180612143D01*
X172520429Y-180551667D01*
X172701857Y-180551667D01*
X172822810Y-180612143D01*
X172883286Y-180672619D01*
X172943762Y-180793572D01*
X172943762Y-181277381D01*
X172278524Y-179463095D02*
X172278524Y-179705000D01*
X172339000Y-179825952D01*
X172399476Y-179886429D01*
X172580905Y-180007381D01*
X172822810Y-180067857D01*
X173306619Y-180067857D01*
X173427571Y-180007381D01*
X173488048Y-179946905D01*
X173548524Y-179825952D01*
X173548524Y-179584048D01*
X173488048Y-179463095D01*
X173427571Y-179402619D01*
X173306619Y-179342143D01*
X173004238Y-179342143D01*
X172883286Y-179402619D01*
X172822810Y-179463095D01*
X172762333Y-179584048D01*
X172762333Y-179825952D01*
X172822810Y-179946905D01*
X172883286Y-180007381D01*
X173004238Y-180067857D01*
X206798333Y-184343524D02*
X206375000Y-183738762D01*
X206072619Y-184343524D02*
X206072619Y-183073524D01*
X206556428Y-183073524D01*
X206677381Y-183134000D01*
X206737857Y-183194476D01*
X206798333Y-183315429D01*
X206798333Y-183496857D01*
X206737857Y-183617810D01*
X206677381Y-183678286D01*
X206556428Y-183738762D01*
X206072619Y-183738762D01*
X207221667Y-183073524D02*
X208007857Y-183073524D01*
X207584524Y-183557333D01*
X207765952Y-183557333D01*
X207886905Y-183617810D01*
X207947381Y-183678286D01*
X208007857Y-183799238D01*
X208007857Y-184101619D01*
X207947381Y-184222571D01*
X207886905Y-184283048D01*
X207765952Y-184343524D01*
X207403095Y-184343524D01*
X207282143Y-184283048D01*
X207221667Y-184222571D01*
X229658333Y-184343524D02*
X229235000Y-183738762D01*
X228932619Y-184343524D02*
X228932619Y-183073524D01*
X229416428Y-183073524D01*
X229537381Y-183134000D01*
X229597857Y-183194476D01*
X229658333Y-183315429D01*
X229658333Y-183496857D01*
X229597857Y-183617810D01*
X229537381Y-183678286D01*
X229416428Y-183738762D01*
X228932619Y-183738762D01*
X230746905Y-183496857D02*
X230746905Y-184343524D01*
X230444524Y-183013048D02*
X230142143Y-183920190D01*
X230928333Y-183920190D01*
X242128524Y-191346667D02*
X241523762Y-191770000D01*
X242128524Y-192072381D02*
X240858524Y-192072381D01*
X240858524Y-191588572D01*
X240919000Y-191467619D01*
X240979476Y-191407143D01*
X241100429Y-191346667D01*
X241281857Y-191346667D01*
X241402810Y-191407143D01*
X241463286Y-191467619D01*
X241523762Y-191588572D01*
X241523762Y-192072381D01*
X242128524Y-190137143D02*
X242128524Y-190862857D01*
X242128524Y-190500000D02*
X240858524Y-190500000D01*
X241039952Y-190620952D01*
X241160905Y-190741905D01*
X241221381Y-190862857D01*
X243628333Y-184597524D02*
X243205000Y-183992762D01*
X242902619Y-184597524D02*
X242902619Y-183327524D01*
X243386428Y-183327524D01*
X243507381Y-183388000D01*
X243567857Y-183448476D01*
X243628333Y-183569429D01*
X243628333Y-183750857D01*
X243567857Y-183871810D01*
X243507381Y-183932286D01*
X243386428Y-183992762D01*
X242902619Y-183992762D01*
X244112143Y-183448476D02*
X244172619Y-183388000D01*
X244293571Y-183327524D01*
X244595952Y-183327524D01*
X244716905Y-183388000D01*
X244777381Y-183448476D01*
X244837857Y-183569429D01*
X244837857Y-183690381D01*
X244777381Y-183871810D01*
X244051667Y-184597524D01*
X244837857Y-184597524D01*
X173548524Y-188171667D02*
X172943762Y-188595000D01*
X173548524Y-188897381D02*
X172278524Y-188897381D01*
X172278524Y-188413572D01*
X172339000Y-188292619D01*
X172399476Y-188232143D01*
X172520429Y-188171667D01*
X172701857Y-188171667D01*
X172822810Y-188232143D01*
X172883286Y-188292619D01*
X172943762Y-188413572D01*
X172943762Y-188897381D01*
X172278524Y-187022619D02*
X172278524Y-187627381D01*
X172883286Y-187687857D01*
X172822810Y-187627381D01*
X172762333Y-187506429D01*
X172762333Y-187204048D01*
X172822810Y-187083095D01*
X172883286Y-187022619D01*
X173004238Y-186962143D01*
X173306619Y-186962143D01*
X173427571Y-187022619D01*
X173488048Y-187083095D01*
X173548524Y-187204048D01*
X173548524Y-187506429D01*
X173488048Y-187627381D01*
X173427571Y-187687857D01*
D15*
G36*
X194183000Y-200607394D02*
X191717394Y-203073000D01*
X174117000Y-203073000D01*
X174117000Y-170867605D01*
X176582605Y-168402000D01*
X177165000Y-168402000D01*
X179017394Y-168402000D01*
X181483000Y-170867605D01*
X181483000Y-182244994D01*
X181482999Y-182245000D01*
X181492667Y-182293601D01*
X181520197Y-182334803D01*
X184060194Y-184874799D01*
X184060197Y-184874803D01*
X184101399Y-184902333D01*
X184150000Y-184912000D01*
X191717394Y-184912000D01*
X194183000Y-187377605D01*
X194183000Y-200607394D01*
X194183000Y-200607394D01*
G37*
X194183000Y-200607394D02*
X191717394Y-203073000D01*
X174117000Y-203073000D01*
X174117000Y-170867605D01*
X176582605Y-168402000D01*
X177165000Y-168402000D01*
X179017394Y-168402000D01*
X181483000Y-170867605D01*
X181483000Y-182244994D01*
X181482999Y-182245000D01*
X181492667Y-182293601D01*
X181520197Y-182334803D01*
X184060194Y-184874799D01*
X184060197Y-184874803D01*
X184101399Y-184902333D01*
X184150000Y-184912000D01*
X191717394Y-184912000D01*
X194183000Y-187377605D01*
X194183000Y-200607394D01*
G36*
X234188000Y-200607394D02*
X231722394Y-203073000D01*
X228017605Y-203073000D01*
X225552000Y-200607394D01*
X225552000Y-191135000D01*
X225542333Y-191086399D01*
X225514803Y-191045197D01*
X225514799Y-191045194D01*
X222974803Y-188505197D01*
X222933601Y-188477667D01*
X222885000Y-188467999D01*
X222836399Y-188477667D01*
X222795197Y-188505197D01*
X222767667Y-188546399D01*
X222757999Y-188595000D01*
X222758000Y-188595005D01*
X222758000Y-194892394D01*
X220292394Y-197358000D01*
X216587605Y-197358000D01*
X214122000Y-194892394D01*
X214122000Y-188595000D01*
X214112333Y-188546399D01*
X214084803Y-188505197D01*
X214043601Y-188477667D01*
X213995000Y-188468000D01*
X213946399Y-188477667D01*
X213905197Y-188505197D01*
X213905194Y-188505200D01*
X211365197Y-191045197D01*
X211337667Y-191086399D01*
X211327999Y-191135000D01*
X211328000Y-191135005D01*
X211328000Y-200607394D01*
X208862394Y-203073000D01*
X205157605Y-203073000D01*
X202692000Y-200607394D01*
X202692000Y-185472605D01*
X205157605Y-183007000D01*
X215847394Y-183007000D01*
X218350194Y-185509799D01*
X218350197Y-185509803D01*
X218391399Y-185537333D01*
X218440000Y-185547001D01*
X218440000Y-185547000D01*
X218488601Y-185537333D01*
X218529803Y-185509803D01*
X221032605Y-183007000D01*
X231722394Y-183007000D01*
X234188000Y-185472605D01*
X234188000Y-200607394D01*
X234188000Y-200607394D01*
G37*
X234188000Y-200607394D02*
X231722394Y-203073000D01*
X228017605Y-203073000D01*
X225552000Y-200607394D01*
X225552000Y-191135000D01*
X225542333Y-191086399D01*
X225514803Y-191045197D01*
X225514799Y-191045194D01*
X222974803Y-188505197D01*
X222933601Y-188477667D01*
X222885000Y-188467999D01*
X222836399Y-188477667D01*
X222795197Y-188505197D01*
X222767667Y-188546399D01*
X222757999Y-188595000D01*
X222758000Y-188595005D01*
X222758000Y-194892394D01*
X220292394Y-197358000D01*
X216587605Y-197358000D01*
X214122000Y-194892394D01*
X214122000Y-188595000D01*
X214112333Y-188546399D01*
X214084803Y-188505197D01*
X214043601Y-188477667D01*
X213995000Y-188468000D01*
X213946399Y-188477667D01*
X213905197Y-188505197D01*
X213905194Y-188505200D01*
X211365197Y-191045197D01*
X211337667Y-191086399D01*
X211327999Y-191135000D01*
X211328000Y-191135005D01*
X211328000Y-200607394D01*
X208862394Y-203073000D01*
X205157605Y-203073000D01*
X202692000Y-200607394D01*
X202692000Y-185472605D01*
X205157605Y-183007000D01*
X215847394Y-183007000D01*
X218350194Y-185509799D01*
X218350197Y-185509803D01*
X218391399Y-185537333D01*
X218440000Y-185547001D01*
X218440000Y-185547000D01*
X218488601Y-185537333D01*
X218529803Y-185509803D01*
X221032605Y-183007000D01*
X231722394Y-183007000D01*
X234188000Y-185472605D01*
X234188000Y-200607394D01*
G36*
X260858000Y-200607394D02*
X258392394Y-203073000D01*
X245154548Y-203073000D01*
X242062000Y-200598961D01*
X242062000Y-170867605D01*
X244527605Y-168402000D01*
X246962394Y-168402000D01*
X249428000Y-170867605D01*
X249428000Y-191769994D01*
X249427999Y-191770000D01*
X249437667Y-191818601D01*
X249465197Y-191859803D01*
X252005194Y-194399799D01*
X252005197Y-194399803D01*
X252046399Y-194427333D01*
X252095000Y-194437000D01*
X258392394Y-194437000D01*
X260858000Y-196902605D01*
X260858000Y-200607394D01*
X260858000Y-200607394D01*
G37*
X260858000Y-200607394D02*
X258392394Y-203073000D01*
X245154548Y-203073000D01*
X242062000Y-200598961D01*
X242062000Y-170867605D01*
X244527605Y-168402000D01*
X246962394Y-168402000D01*
X249428000Y-170867605D01*
X249428000Y-191769994D01*
X249427999Y-191770000D01*
X249437667Y-191818601D01*
X249465197Y-191859803D01*
X252005194Y-194399799D01*
X252005197Y-194399803D01*
X252046399Y-194427333D01*
X252095000Y-194437000D01*
X258392394Y-194437000D01*
X260858000Y-196902605D01*
X260858000Y-200607394D01*
%LPC*%
D18*
X213360000Y-185420000D03*
D19*
X233680000Y-185420000D03*
D20*
X207010000Y-196215000D03*
D21*
X207010000Y-201295000D03*
D20*
X178435000Y-196215000D03*
D21*
X178435000Y-201295000D03*
D20*
X246380000Y-196215000D03*
D21*
X246380000Y-201295000D03*
D22*
X196850000Y-170180000D03*
X237490000Y-170180000D03*
D20*
X229870000Y-196215000D03*
D21*
X229870000Y-201295000D03*
D20*
X256540000Y-196215000D03*
D21*
X256540000Y-201295000D03*
D20*
X189865000Y-196215000D03*
D21*
X189865000Y-201295000D03*
D23*
X217170000Y-194310000D03*
D24*
X219710000Y-194310000D03*
D23*
X244475000Y-185420000D03*
D24*
X247015000Y-185420000D03*
D23*
X188595000Y-187960000D03*
D24*
X191135000Y-187960000D03*
D10*
G36*
X178435000Y-172546777D02*
X177447172Y-171558949D01*
X178435000Y-170571121D01*
X179422828Y-171558949D01*
X178435000Y-172546777D01*
X178435000Y-172546777D01*
G37*
D25*
X176638949Y-173355000D03*
X178435000Y-175151051D03*
D10*
G36*
X219248223Y-188595000D02*
X220236051Y-187607172D01*
X221223879Y-188595000D01*
X220236051Y-189582828D01*
X219248223Y-188595000D01*
X219248223Y-188595000D01*
G37*
D25*
X218440000Y-186798949D03*
X216643949Y-188595000D03*
D10*
G36*
X247015000Y-172546777D02*
X246027172Y-171558949D01*
X247015000Y-170571121D01*
X248002828Y-171558949D01*
X247015000Y-172546777D01*
X247015000Y-172546777D01*
G37*
D25*
X245218949Y-173355000D03*
X247015000Y-175151051D03*
X176530000Y-180340000D03*
X179070000Y-180340000D03*
X207010000Y-187325000D03*
X207010000Y-189865000D03*
X229870000Y-187325000D03*
X229870000Y-189865000D03*
X245110000Y-191135000D03*
X247650000Y-191135000D03*
X243840000Y-180467000D03*
X243840000Y-177927000D03*
X176530000Y-187960000D03*
X179070000Y-187960000D03*
M02*
